<svg width="860" height="578" viewBox="0 0 860 578" fill="none" xmlns="http://www.w3.org/2000/svg">
<path d="M18.886 549.537C-2.72943 532.352 -6.32111 500.898 10.8637 479.283L437.774 -57.6934C454.959 -79.3088 486.413 -82.9005 508.028 -65.7157L528.958 -49.0761C550.573 -31.8913 554.165 -0.437439 536.98 21.178L110.07 558.154C92.8848 579.77 61.431 583.361 39.8155 566.176L18.886 549.537Z" fill="#F5DC52"/>
<path d="M361.034 380.755C350.383 372.286 348.613 356.786 357.081 346.134L815.557 -230.545C824.025 -241.197 839.525 -242.967 850.177 -234.498C860.829 -226.03 862.599 -210.53 854.13 -199.878L395.655 376.801C387.186 387.453 371.686 389.223 361.034 380.755Z" fill="url(#paint0_radial_6_112)"/>
<path d="M145.287 568.235C143.333 566.681 143.008 563.836 144.562 561.882L628.076 -46.2919C629.63 -48.2468 632.475 -48.5716 634.43 -47.0175C636.384 -45.4633 636.709 -42.6188 635.155 -40.6639L151.641 567.51C150.087 569.464 147.242 569.789 145.287 568.235Z" fill="#A69D78"/>
<path d="M237.287 94.2351C235.333 92.681 235.008 89.8364 236.562 87.8815L720.076 -520.292C721.63 -522.247 724.475 -522.572 726.43 -521.018C728.384 -519.463 728.709 -516.619 727.155 -514.664L243.641 93.5096C242.087 95.4644 239.242 95.7892 237.287 94.2351Z" fill="#30456F"/>
<path d="M155.287 243.235C153.333 241.681 153.008 238.836 154.562 236.882L638.076 -371.292C639.63 -373.247 642.475 -373.572 644.43 -372.018C646.384 -370.463 646.709 -367.619 645.155 -365.664L161.641 242.51C160.087 244.464 157.242 244.789 155.287 243.235Z" fill="#A69D78"/>
<path d="M371.748 455.168C371.748 463.453 365.032 470.168 356.748 470.168C348.464 470.168 341.748 463.453 341.748 455.168C341.748 446.884 348.464 440.168 356.748 440.168C365.032 440.168 371.748 446.884 371.748 455.168Z" fill="#F5DC52"/>
<path d="M181.748 167.168C181.748 175.453 175.032 182.168 166.748 182.168C158.464 182.168 151.748 175.453 151.748 167.168C151.748 158.884 158.464 152.168 166.748 152.168C175.032 152.168 181.748 158.884 181.748 167.168Z" fill="#30456F"/>
<path d="M278.748 475.168C278.748 477.93 276.509 480.168 273.748 480.168C270.986 480.168 268.748 477.93 268.748 475.168C268.748 472.407 270.986 470.168 273.748 470.168C276.509 470.168 278.748 472.407 278.748 475.168Z" fill="#F5DC52"/>
<path d="M394.748 525.168C394.748 527.93 392.509 530.168 389.748 530.168C386.986 530.168 384.748 527.93 384.748 525.168C384.748 522.407 386.986 520.168 389.748 520.168C392.509 520.168 394.748 522.407 394.748 525.168Z" fill="#6F7075"/>
<path d="M243.748 570.168C243.748 572.93 241.509 575.168 238.748 575.168C235.986 575.168 233.748 572.93 233.748 570.168C233.748 567.407 235.986 565.168 238.748 565.168C241.509 565.168 243.748 567.407 243.748 570.168Z" fill="#30456F"/>
<path d="M399.748 403.168C399.748 405.93 397.509 408.168 394.748 408.168C391.986 408.168 389.748 405.93 389.748 403.168C389.748 400.407 391.986 398.168 394.748 398.168C397.509 398.168 399.748 400.407 399.748 403.168Z" fill="#A69D78"/>
<path d="M132.748 285.168C132.748 287.93 130.509 290.168 127.748 290.168C124.986 290.168 122.748 287.93 122.748 285.168C122.748 282.407 124.986 280.168 127.748 280.168C130.509 280.168 132.748 282.407 132.748 285.168Z" fill="#30456F"/>
<path d="M87.7478 265.168C87.7478 278.976 76.5549 290.168 62.7478 290.168C48.9407 290.168 37.7478 278.976 37.7478 265.168C37.7478 251.361 48.9407 240.168 62.7478 240.168C76.5549 240.168 87.7478 251.361 87.7478 265.168Z" fill="#F5DC52"/>
<path d="M339.748 530.168C339.748 543.976 328.555 555.168 314.748 555.168C300.941 555.168 289.748 543.976 289.748 530.168C289.748 516.361 300.941 505.168 314.748 505.168C328.555 505.168 339.748 516.361 339.748 530.168Z" fill="#A69D78"/>
<defs>
<radialGradient id="paint0_radial_6_112" cx="0" cy="0" r="1" gradientUnits="userSpaceOnUse" gradientTransform="translate(9.16447e-06 27.5201) scale(838.668 3389.39)">
<stop stop-color="#30456F"/>
<stop offset="0.472221" stop-color="#30456F"/>
<stop offset="1" stop-color="#3D4C6A"/>
</radialGradient>
</defs>
</svg>
