<svg width="75" height="165" viewBox="0 0 75 165" fill="none" xmlns="http://www.w3.org/2000/svg">
<path d="M2 15.5V14.5H1V15.5H2ZM72.7225 16.2071C73.113 15.8166 73.113 15.1834 72.7225 14.7929L66.3585 8.42893C65.968 8.03841 65.3348 8.03841 64.9443 8.42893C64.5538 8.81946 64.5538 9.45262 64.9443 9.84315L70.6012 15.5L64.9443 21.1569C64.5538 21.5474 64.5538 22.1805 64.9443 22.5711C65.3348 22.9616 65.968 22.9616 66.3585 22.5711L72.7225 16.2071ZM3 164.5V161.396H1V164.5H3ZM3 155.188V148.979H1V155.188H3ZM3 142.771V136.562H1V142.771H3ZM3 130.354V124.146H1V130.354H3ZM3 117.938V111.729H1V117.938H3ZM3 105.521V99.3125H1V105.521H3ZM3 93.1042V86.8958H1V93.1042H3ZM3 80.6875V74.4792H1V80.6875H3ZM3 68.2708V62.0625H1V68.2708H3ZM3 55.8541V49.6458H1V55.8541H3ZM3 43.4375V37.2291H1V43.4375H3ZM3 31.0208V24.8125H1V31.0208H3ZM3 18.6042V15.5H1V18.6042H3ZM2 16.5H4.91731V14.5H2V16.5ZM10.7519 16.5H16.5865V14.5H10.7519V16.5ZM22.4211 16.5H28.2558V14.5H22.4211V16.5ZM34.0904 16.5H39.925V14.5H34.0904V16.5ZM45.7596 16.5H51.5942V14.5H45.7596V16.5ZM57.4288 16.5H63.2634V14.5H57.4288V16.5ZM69.0981 16.5H72.0154V14.5H69.0981V16.5ZM2 15.5V13.5H0V15.5H2ZM73.4296 16.9142C74.2106 16.1332 74.2106 14.8668 73.4296 14.0858L60.7017 1.35786C59.9206 0.576816 58.6543 0.576816 57.8732 1.35786C57.0922 2.13891 57.0922 3.40524 57.8732 4.18629L69.1869 15.5L57.8732 26.8137C57.0922 27.5948 57.0922 28.8611 57.8732 29.6421C58.6543 30.4232 59.9206 30.4232 60.7017 29.6421L73.4296 16.9142ZM4 164.5V161.396H0V164.5H4ZM4 155.188V148.979H0V155.188H4ZM4 142.771V136.562H0V142.771H4ZM4 130.354V124.146H0V130.354H4ZM4 117.938V111.729H0V117.938H4ZM4 105.521V99.3125H0V105.521H4ZM4 93.1042V86.8958H0V93.1042H4ZM4 80.6875V74.4792H0V80.6875H4ZM4 68.2708V62.0625H0V68.2708H4ZM4 55.8541V49.6458H0V55.8541H4ZM4 43.4375V37.2291H0V43.4375H4ZM4 31.0208V24.8125H0V31.0208H4ZM4 18.6042V15.5H0V18.6042H4ZM2 17.5H4.91731V13.5H2V17.5ZM10.7519 17.5H16.5865V13.5H10.7519V17.5ZM22.4211 17.5H28.2558V13.5H22.4211V17.5ZM34.0904 17.5H39.925V13.5H34.0904V17.5ZM45.7596 17.5H51.5942V13.5H45.7596V17.5ZM57.4288 17.5H63.2634V13.5H57.4288V17.5ZM69.0981 17.5H72.0154V13.5H69.0981V17.5Z" fill="white"/>
</svg>
