<svg width="1920" height="1080" viewBox="0 0 1920 1080" fill="none" xmlns="http://www.w3.org/2000/svg">
<mask id="mask0_408_7" style="mask-type:alpha" maskUnits="userSpaceOnUse" x="0" y="0" width="1920" height="1080">
<rect width="1920" height="1080" fill="white"/>
</mask>
<g mask="url(#mask0_408_7)">
<g opacity="0.7" filter="url(#filter0_f_408_7)">
<path d="M173.272 1045.57C138.625 1018.11 132.868 967.849 160.413 933.307L943.849 -49.1149C971.394 -83.6568 1021.81 -89.3964 1056.46 -61.9347C1091.11 -34.473 1096.86 15.7907 1069.32 50.3326L285.882 1032.75C258.337 1067.3 207.92 1073.04 173.272 1045.57Z" fill="#F5DC52"/>
<path d="M743.009 730.038C723.777 714.794 720.581 686.893 735.871 667.718L1563.69 -370.355C1578.98 -389.529 1606.96 -392.715 1626.2 -377.471C1645.43 -362.227 1648.62 -334.326 1633.33 -315.152L805.519 722.922C790.229 742.096 762.242 745.282 743.009 730.038Z" fill="url(#paint0_radial_408_7)"/>
<path d="M337.21 1056.72C333.68 1053.92 333.094 1048.8 335.9 1045.28L1208.92 -49.4843C1211.73 -53.0031 1216.87 -53.5879 1220.4 -50.7903C1223.93 -47.9927 1224.51 -42.8723 1221.71 -39.3534L348.682 1055.41C345.876 1058.93 340.739 1059.52 337.21 1056.72Z" fill="#A69D78"/>
<path d="M519.574 214.277C516.044 211.48 515.458 206.359 518.264 202.841L1391.29 -891.925C1394.09 -895.444 1399.23 -896.029 1402.76 -893.231C1406.29 -890.434 1406.88 -885.313 1404.07 -881.795L531.045 212.972C528.239 216.49 523.103 217.075 519.574 214.277Z" fill="#30456F"/>
<path d="M398.6 489.691C395.07 486.893 394.484 481.773 397.29 478.254L1270.31 -616.512C1273.12 -620.031 1278.26 -620.616 1281.79 -617.818C1285.32 -615.02 1285.9 -609.9 1283.1 -606.381L410.071 488.385C407.265 491.904 402.129 492.489 398.6 489.691Z" fill="#A69D78"/>
<path d="M762.353 863.989C762.353 878.902 750.227 890.991 735.269 890.991C720.311 890.991 708.186 878.902 708.186 863.989C708.186 849.077 720.311 836.988 735.269 836.988C750.227 836.988 762.353 849.077 762.353 863.989Z" fill="#F5DC52"/>
<path d="M419.292 345.564C419.292 360.476 407.167 372.565 392.209 372.565C377.251 372.565 365.125 360.476 365.125 345.564C365.125 330.651 377.251 318.563 392.209 318.563C407.167 318.563 419.292 330.651 419.292 345.564Z" fill="#30456F"/>
<path d="M594.434 899.991C594.434 904.962 590.392 908.992 585.406 908.992C580.42 908.992 576.378 904.962 576.378 899.991C576.378 895.02 580.42 890.991 585.406 890.991C590.392 890.991 594.434 895.02 594.434 899.991Z" fill="#F5DC52"/>
<path d="M803.881 989.996C803.881 994.966 799.84 998.996 794.854 998.996C789.868 998.996 785.826 994.966 785.826 989.996C785.826 985.025 789.868 980.995 794.854 980.995C799.84 980.995 803.881 985.025 803.881 989.996Z" fill="#6F7075"/>
<path d="M531.239 1071C531.239 1075.97 527.197 1080 522.211 1080C517.225 1080 513.183 1075.97 513.183 1071C513.183 1066.03 517.225 1062 522.211 1062C527.197 1062 531.239 1066.03 531.239 1071Z" fill="#30456F"/>
<path d="M812.909 770.385C812.909 775.356 808.867 779.385 803.881 779.385C798.896 779.385 794.854 775.356 794.854 770.385C794.854 765.414 798.896 761.384 803.881 761.384C808.867 761.384 812.909 765.414 812.909 770.385Z" fill="#A69D78"/>
<path d="M330.819 557.974C330.819 562.945 326.777 566.975 321.791 566.975C316.805 566.975 312.763 562.945 312.763 557.974C312.763 553.004 316.805 548.974 321.791 548.974C326.777 548.974 330.819 553.004 330.819 557.974Z" fill="#30456F"/>
<path d="M249.568 521.973C249.568 546.827 229.358 566.975 204.428 566.975C179.498 566.975 159.289 546.827 159.289 521.973C159.289 497.119 179.498 476.97 204.428 476.97C229.358 476.97 249.568 497.119 249.568 521.973Z" fill="#F5DC52"/>
<path d="M704.574 998.996C704.574 1023.85 684.365 1044 659.435 1044C634.505 1044 614.295 1023.85 614.295 998.996C614.295 974.142 634.505 953.994 659.435 953.994C684.365 953.994 704.574 974.142 704.574 998.996Z" fill="#A69D78"/>
</g>
</g>
<defs>
<filter id="filter0_f_408_7" x="139" y="-899" width="1508" height="1983" filterUnits="userSpaceOnUse" color-interpolation-filters="sRGB">
<feFlood flood-opacity="0" result="BackgroundImageFix"/>
<feBlend mode="normal" in="SourceGraphic" in2="BackgroundImageFix" result="shape"/>
<feGaussianBlur stdDeviation="2" result="effect1_foregroundBlur_408_7"/>
</filter>
<radialGradient id="paint0_radial_408_7" cx="0" cy="0" r="1" gradientUnits="userSpaceOnUse" gradientTransform="translate(143 92.5) scale(1463.67 6090.8)">
<stop stop-color="#30456F"/>
<stop offset="0.472221" stop-color="#30456F"/>
<stop offset="1" stop-color="#3D4C6A"/>
</radialGradient>
</defs>
</svg>
