<svg width="273" height="130" viewBox="0 0 273 130" fill="none" xmlns="http://www.w3.org/2000/svg">
<path d="M129.85 64.55C129.85 61.15 130.633 58.1 132.2 55.4C133.8 52.7 135.95 50.6 138.65 49.1C141.383 47.5667 144.367 46.8 147.6 46.8C151.3 46.8 154.583 47.7167 157.45 49.55C160.35 51.35 162.45 53.9167 163.75 57.25H156.9C156 55.4167 154.75 54.05 153.15 53.15C151.55 52.25 149.7 51.8 147.6 51.8C145.3 51.8 143.25 52.3167 141.45 53.35C139.65 54.3833 138.233 55.8667 137.2 57.8C136.2 59.7333 135.7 61.9833 135.7 64.55C135.7 67.1167 136.2 69.3667 137.2 71.3C138.233 73.2333 139.65 74.7333 141.45 75.8C143.25 76.8333 145.3 77.35 147.6 77.35C149.7 77.35 151.55 76.9 153.15 76C154.75 75.1 156 73.7333 156.9 71.9H163.75C162.45 75.2333 160.35 77.8 157.45 79.6C154.583 81.4 151.3 82.3 147.6 82.3C144.333 82.3 141.35 81.55 138.65 80.05C135.95 78.5167 133.8 76.4 132.2 73.7C130.633 71 129.85 67.95 129.85 64.55ZM186.272 82.35C183.039 82.35 180.055 81.6 177.322 80.1C174.622 78.5667 172.472 76.45 170.872 73.75C169.305 71.0167 168.522 67.95 168.522 64.55C168.522 61.15 169.305 58.1 170.872 55.4C172.472 52.7 174.622 50.6 177.322 49.1C180.055 47.5667 183.039 46.8 186.272 46.8C189.539 46.8 192.522 47.5667 195.222 49.1C197.955 50.6 200.105 52.7 201.672 55.4C203.239 58.1 204.022 61.15 204.022 64.55C204.022 67.95 203.239 71.0167 201.672 73.75C200.105 76.45 197.955 78.5667 195.222 80.1C192.522 81.6 189.539 82.35 186.272 82.35ZM186.272 77.4C188.572 77.4 190.622 76.8833 192.422 75.85C194.222 74.7833 195.622 73.2833 196.622 71.35C197.655 69.3833 198.172 67.1167 198.172 64.55C198.172 61.9833 197.655 59.7333 196.622 57.8C195.622 55.8667 194.222 54.3833 192.422 53.35C190.622 52.3167 188.572 51.8 186.272 51.8C183.972 51.8 181.922 52.3167 180.122 53.35C178.322 54.3833 176.905 55.8667 175.872 57.8C174.872 59.7333 174.372 61.9833 174.372 64.55C174.372 67.1167 174.872 69.3833 175.872 71.35C176.905 73.2833 178.322 74.7833 180.122 75.85C181.922 76.8833 183.972 77.4 186.272 77.4ZM228.231 64.15C230.098 64.4833 231.681 65.4667 232.981 67.1C234.281 68.7333 234.931 70.5833 234.931 72.65C234.931 74.4167 234.464 76.0167 233.531 77.45C232.631 78.85 231.314 79.9667 229.581 80.8C227.848 81.6 225.831 82 223.531 82H209.631V47.25H222.881C225.248 47.25 227.281 47.65 228.981 48.45C230.681 49.25 231.964 50.3333 232.831 51.7C233.698 53.0333 234.131 54.5333 234.131 56.2C234.131 58.2 233.598 59.8667 232.531 61.2C231.464 62.5333 230.031 63.5167 228.231 64.15ZM215.331 61.85H222.381C224.248 61.85 225.698 61.4333 226.731 60.6C227.798 59.7333 228.331 58.5 228.331 56.9C228.331 55.3333 227.798 54.1167 226.731 53.25C225.698 52.35 224.248 51.9 222.381 51.9H215.331V61.85ZM223.031 77.35C224.964 77.35 226.481 76.8833 227.581 75.95C228.681 75.0167 229.231 73.7167 229.231 72.05C229.231 70.35 228.648 69 227.481 68C226.314 67 224.764 66.5 222.831 66.5H215.331V77.35H223.031ZM246.825 77.4H258.575V82H241.125V47.25H246.825V77.4ZM269.042 47.25V82H263.342V47.25H269.042Z" fill="#747474"/>
<path d="M109 24.2075C98.042 12.3934 82.3844 5 65 5C47.6156 5 31.958 12.3934 21 24.2075" stroke="#3362C0" stroke-width="10"/>
<path d="M5 65C5 53.2354 8.38594 42.2616 14.2365 33" stroke="#6F7075" stroke-width="10"/>
<path d="M65 125C47.6156 125 31.958 117.607 21 105.793C13.439 97.6408 8.11547 87.3844 6.0061 76" stroke="#BDA647" stroke-width="10"/>
<path d="M109 105.793C100.856 114.573 90.1157 120.912 78 123.588" stroke="#FFD800" stroke-width="10"/>
<circle cx="65.5" cy="64.5" r="34.5" fill="#747474" stroke="#747474" stroke-width="6"/>
<circle cx="78" cy="53" r="15" fill="white"/>
</svg>
