<svg width="512" height="590" viewBox="0 0 512 590" fill="none" xmlns="http://www.w3.org/2000/svg">
<g filter="url(#filter0_d_60_288)">
<path d="M81.7821 363.106C111.028 417.566 95.8921 468.572 36.9559 580.281H291.229C291.008 551.889 300.328 537.765 327.553 514.587C390.794 505.872 454.445 546.78 454.303 468.989C452.347 459.143 458.716 452.214 467.442 444.257C470.299 442.64 473.827 432.541 469.761 418.752C474.303 407.804 474.955 408.006 480.581 399.431C476.231 382.617 472.017 381.538 477.489 371.607C502.549 360.35 508.202 351.771 505.312 332.964C479.143 308.673 468.002 292.299 456.622 256.45C474.059 57.7597 304.717 -32.1306 124.29 13.7706C-13.8398 90.3596 -34.8995 265.57 81.7821 363.106Z" stroke="white" stroke-width="3" stroke-linecap="round" stroke-dasharray="15 15" shape-rendering="crispEdges"/>
</g>
<defs>
<filter id="filter0_d_60_288" x="0.5" y="0.5" width="510.973" height="589.281" filterUnits="userSpaceOnUse" color-interpolation-filters="sRGB">
<feFlood flood-opacity="0" result="BackgroundImageFix"/>
<feColorMatrix in="SourceAlpha" type="matrix" values="0 0 0 0 0 0 0 0 0 0 0 0 0 0 0 0 0 0 127 0" result="hardAlpha"/>
<feOffset dy="4"/>
<feGaussianBlur stdDeviation="2"/>
<feComposite in2="hardAlpha" operator="out"/>
<feColorMatrix type="matrix" values="0 0 0 0 0 0 0 0 0 0 0 0 0 0 0 0 0 0 0.25 0"/>
<feBlend mode="normal" in2="BackgroundImageFix" result="effect1_dropShadow_60_288"/>
<feBlend mode="normal" in="SourceGraphic" in2="effect1_dropShadow_60_288" result="shape"/>
</filter>
</defs>
</svg>
